<svg width="40" height="40" viewBox="0 0 40 40" fill="none" xmlns="http://www.w3.org/2000/svg">
<path fill-rule="evenodd" clip-rule="evenodd" d="M20 3.75C11.0259 3.75 3.75 11.0259 3.75 20C3.75 28.9741 11.0259 36.25 20 36.25C28.9741 36.25 36.25 28.9741 36.25 20C36.25 18.9133 36.1386 17.7879 35.9344 16.7571C35.8185 16.1718 35.305 15.75 34.7082 15.75H20C19.3096 15.75 18.75 16.3096 18.75 17V23C18.75 23.6904 19.3096 24.25 20 24.25H26.4713C26.003 24.9634 25.4206 25.5947 24.7503 26.1177C24.7406 26.1238 24.7309 26.13 24.7213 26.1364L24.7191 26.1379L24.7208 26.1406C23.4144 27.1499 21.7775 27.75 20 27.75C15.7201 27.75 12.25 24.2799 12.25 20C12.25 15.7201 15.7201 12.25 20 12.25C21.9728 12.25 23.768 12.9928 25.1399 14.2132C25.6346 14.6532 26.3865 14.6313 26.8546 14.1631L31.0974 9.92038C31.3372 9.68057 31.4693 9.3536 31.4633 9.0145C31.4573 8.6754 31.3138 8.35329 31.0657 8.12206C28.1673 5.42077 24.2832 3.75 20 3.75ZM25.3367 28.7486C23.7842 29.7006 21.9577 30.25 20 30.25C16.1533 30.25 12.8012 28.1306 11.048 24.9959L8.25282 27.1495C10.667 31.1074 15.0251 33.75 20 33.75C23.0353 33.75 25.8411 32.7663 28.1158 31.1003L25.3367 28.7486ZM30.009 29.4274C32.3285 26.9658 33.75 23.6488 33.75 20C33.75 19.4208 33.7125 18.8267 33.6421 18.25H21.25V21.75H28.4773C28.8831 21.75 29.2638 21.9471 29.498 22.2786C29.7323 22.61 29.791 23.0346 29.6556 23.4172C29.1548 24.8315 28.3531 26.1045 27.3269 27.1577L30.009 29.4274ZM8.36597 12.6682C10.8016 8.81167 15.1019 6.25 20 6.25C23.1529 6.25 26.0509 7.31938 28.3715 9.11073L25.8727 11.6095C24.2121 10.442 22.1888 9.75 20 9.75C16.2602 9.75 12.988 11.7532 11.1979 14.7451L8.36597 12.6682ZM7.21678 14.9257C6.59294 16.4957 6.25 18.2078 6.25 20C6.25 21.7097 6.56211 23.3466 7.13246 24.8567L10.0791 22.5864C9.86432 21.7602 9.75 20.8934 9.75 20C9.75 18.9894 9.89628 18.0129 10.1688 17.0906L7.21678 14.9257Z" fill="black"/>
</svg>
