<svg width="40" height="40" viewBox="0 0 40 40" fill="none" xmlns="http://www.w3.org/2000/svg">
<path fill-rule="evenodd" clip-rule="evenodd" d="M25.0357 5.57246C25.883 5.42733 26.8319 5.37887 27.7248 5.52994C29.3196 5.79974 30.7927 6.54095 31.9571 7.65222C32.7183 7.66943 33.4663 7.51948 34.1282 7.30571C34.6884 7.12479 35.1616 6.90634 35.4932 6.73361C35.658 6.64773 35.7854 6.57446 35.8682 6.52486C35.9095 6.5001 35.9396 6.48136 35.9574 6.47004L35.9733 6.45994C36.4679 6.13039 37.1266 6.19453 37.5481 6.61371C37.9697 7.03298 38.0376 7.69118 37.7105 8.18769C37.3643 8.71318 36.8837 9.64996 36.3453 10.6996C36.2606 10.8646 36.1745 11.0324 36.0873 11.2019C35.7785 11.8018 35.4619 12.4082 35.1667 12.9284C34.9814 13.255 34.7832 13.5866 34.5833 13.8732V14.3295C34.596 16.0056 34.4038 17.6729 34.0136 19.2949C33.7682 20.3155 33.4444 21.3181 33.044 22.2938C32.0066 24.8215 30.4759 27.1173 28.5414 29.0468C26.6069 30.9764 24.3072 32.5012 21.7768 33.5321C19.2486 34.5621 16.5407 35.0784 13.8109 35.051C9.85376 35.0544 5.97982 33.9143 2.65528 31.7678C2.16561 31.4516 1.95945 30.839 2.15834 30.2911C2.35724 29.7432 2.90839 29.4055 3.48685 29.4771C3.98745 29.5391 4.49147 29.5693 4.99588 29.5677C6.8083 29.5626 8.5862 29.1621 10.2093 28.4077C9.69339 28.1729 9.20083 27.8833 8.74057 27.542C7.38771 26.5388 6.3812 25.1389 5.86108 23.537C5.72592 23.1208 5.81832 22.6641 6.10468 22.3331C6.10981 22.3272 6.11499 22.3214 6.12021 22.3155C5.81433 22.0428 5.52812 21.7458 5.26462 21.4264C4.07909 19.9894 3.4263 18.187 3.41667 16.3241L3.41663 16.3177L3.41665 16.2343C3.41665 15.7912 3.65124 15.3812 4.03324 15.1567C4.13008 15.0998 4.23272 15.0569 4.3383 15.0282C3.77441 13.9031 3.48117 12.6607 3.48332 11.4002C3.48265 9.97228 3.85564 8.56901 4.56525 7.32983C4.7701 6.97211 5.13815 6.73838 5.54903 6.70509C5.95991 6.67179 6.36079 6.84322 6.62056 7.16329C8.22482 9.13998 10.227 10.7571 12.4969 11.9095C13.6638 12.5019 14.8881 12.9648 16.1477 13.2922C16.854 13.4757 17.5713 13.6167 18.2959 13.7141C18.264 12.5086 18.5021 11.3039 19.0016 10.1906C19.7344 8.5576 20.9885 7.21397 22.5672 6.37048C23.2358 6.01327 24.1234 5.72875 25.0357 5.57246ZM6.23877 18.1516C6.45485 18.7598 6.7763 19.3303 7.19306 19.8355C8.01193 20.828 9.14851 21.5073 10.4105 21.7584C10.9727 21.8702 11.3867 22.35 11.4151 22.9225C11.4435 23.4949 11.0789 24.0133 10.5306 24.1802C10.0764 24.3184 9.61113 24.4147 9.14053 24.4682C9.4515 24.869 9.8173 25.2281 10.2296 25.5339C11.165 26.2274 12.2932 26.6122 13.4574 26.6346C13.9856 26.6447 14.4503 26.9859 14.6184 27.4867C14.7864 27.9876 14.6215 28.54 14.2063 28.8667C12.4577 30.2426 10.4357 31.202 8.29309 31.6918C10.0689 32.2605 11.9313 32.5533 13.8151 32.551L13.8296 32.551C16.2297 32.5759 18.6107 32.1224 20.8336 31.2168C23.0564 30.3113 25.0765 28.9718 26.7759 27.2768C28.4753 25.5818 29.8199 23.5651 30.7312 21.3446C31.0829 20.4876 31.3673 19.6068 31.583 18.7103C31.926 17.284 32.0949 15.8179 32.0834 14.3441L32.0833 14.3343V13.451C32.0833 13.1479 32.1934 12.8551 32.3932 12.6272C32.5086 12.4955 32.7106 12.1912 32.9923 11.6947C33.26 11.2228 33.5564 10.6563 33.8645 10.0577C33.8831 10.0215 33.9019 9.98507 33.9206 9.94851C33.1213 10.1221 32.2154 10.2131 31.2657 10.1104C30.9649 10.0779 30.6861 9.93745 30.481 9.71505C29.6429 8.80615 28.5268 8.20114 27.3078 7.99491C26.7669 7.9034 26.113 7.92435 25.4578 8.03657C24.746 8.15851 24.1265 8.37187 23.7454 8.57549C22.6549 9.1581 21.7887 10.0862 21.2825 11.2142C20.7763 12.3421 20.6589 13.6062 20.9485 14.8081C21.0409 15.1913 20.9471 15.5956 20.6954 15.899C20.4438 16.2024 20.0638 16.3693 19.6702 16.3494C18.2645 16.2783 16.8737 16.0639 15.5189 15.7118C14.0857 15.3393 12.6928 14.8127 11.3652 14.1387C9.41058 13.1463 7.63049 11.8512 6.08909 10.305C6.01877 10.6644 5.98307 11.0311 5.98332 11.4002L5.98331 11.4034C5.98157 12.3212 6.20682 13.2253 6.639 14.035C7.07119 14.8448 7.69689 15.5351 8.46041 16.0445C8.92378 16.3537 9.12666 16.9322 8.95791 17.463C8.78915 17.9939 8.28949 18.349 7.73265 18.3339C7.22833 18.3202 6.72822 18.2588 6.23877 18.1516Z" fill="black"/>
</svg>
